<?xml version="1.0" standalone="no"?><!DOCTYPE svg PUBLIC "-//W3C//DTD SVG 1.1//EN" "http://www.w3.org/Graphics/SVG/1.1/DTD/svg11.dtd"><svg t="1670472200654" class="icon" viewBox="0 0 1024 1024" version="1.1" xmlns="http://www.w3.org/2000/svg" p-id="2810" xmlns:xlink="http://www.w3.org/1999/xlink" width="200" height="200"><path d="M832 1024H192a192 192 0 0 1-192-192V192a192 192 0 0 1 192-192h640a192 192 0 0 1 192 192v640a192 192 0 0 1-192 192z m64-832a64 64 0 0 0-64-64H192a64 64 0 0 0-64 64v640c0 35.392 28.608 64 64 64h640c35.392 0 64-28.608 64-64V192zM256 640h512v128H256v-128z m0-192h512v128H256v-128z m0-192h512v128H256v-128z" fill="" p-id="2811"></path></svg>